<svg xmlns="http://www.w3.org/2000/svg" viewBox="0 0 400 120">
  <defs>
    <linearGradient id="iconBg" x1="0%" y1="0%" x2="100%" y2="100%">
      <stop offset="0%" stop-color="#0f172a"/>
      <stop offset="100%" stop-color="#1e293b"/>
    </linearGradient>
    <linearGradient id="carB" x1="0%" y1="0%" x2="100%" y2="100%">
      <stop offset="0%" stop-color="#f59e0b"/>
      <stop offset="100%" stop-color="#d97706"/>
    </linearGradient>
    <linearGradient id="gl" x1="0%" y1="0%" x2="0%" y2="100%">
      <stop offset="0%" stop-color="#93c5fd"/>
      <stop offset="100%" stop-color="#3b82f6"/>
    </linearGradient>
    <linearGradient id="sh" x1="0%" y1="0%" x2="0%" y2="100%">
      <stop offset="0%" stop-color="#fbbf24" stop-opacity="0.5"/>
      <stop offset="100%" stop-color="#f59e0b" stop-opacity="0"/>
    </linearGradient>
    <filter id="gw"><feGaussianBlur stdDeviation="1" result="b"/><feMerge><feMergeNode in="b"/><feMergeNode in="SourceGraphic"/></feMerge></filter>
    <filter id="ds"><feDropShadow dx="0" dy="1" stdDeviation="1.2" flood-color="#000" flood-opacity="0.25"/></filter>
  </defs>

  <!-- Circle icon -->
  <circle cx="55" cy="60" r="52" fill="url(#iconBg)"/>
  <circle cx="55" cy="60" r="49" fill="none" stroke="#f59e0b" stroke-width="0.6" opacity="0.3"/>

  <!-- Road -->
  <ellipse cx="55" cy="86" rx="28" ry="3" fill="#334155" opacity="0.5"/>
  <rect x="32" y="85.2" width="5" height="1.4" rx="0.7" fill="#475569" opacity="0.4"/>
  <rect x="42" y="85.2" width="5" height="1.4" rx="0.7" fill="#475569" opacity="0.4"/>
  <rect x="52" y="85.2" width="5" height="1.4" rx="0.7" fill="#475569" opacity="0.4"/>
  <rect x="62" y="85.2" width="5" height="1.4" rx="0.7" fill="#475569" opacity="0.4"/>
  <rect x="72" y="85.2" width="5" height="1.4" rx="0.7" fill="#475569" opacity="0.4"/>

  <!-- Car -->
  <g filter="url(#ds)">
    <path d="M25,76 Q24,73 26,71 L29,69 L81,69 L84,71 Q86,73 85,76 L85,81 Q85,82.5 83.5,82.5 L26.5,82.5 Q25,82.5 25,81 Z" fill="url(#carB)"/>
    <path d="M26,71 L29,69 L81,69 L84,71 Q85,72 85,73 L25,73 Q25,72 26,71 Z" fill="url(#sh)"/>
    <path d="M35,69 L39,57 Q41,54 44,53.5 L66,53.5 Q69,54 71,57 L75,69 Z" fill="url(#carB)"/>
    <path d="M39,57 Q41,54 44,53.5 L66,53.5 Q69,54 71,57 L69,57 Q67.5,55 65.5,54.5 L44.5,54.5 Q42.5,55 41,57 Z" fill="#fde68a" opacity="0.4"/>
    <path d="M67,69 L72,58 Q70.5,55.5 67.5,55 L60,54.5 L60,69 Z" fill="url(#gl)" opacity="0.85"/>
    <path d="M43,69 L38,58 Q39.5,55.5 42.5,55 L50,54.5 L50,69 Z" fill="url(#gl)" opacity="0.85"/>
    <rect x="50" y="54.5" width="10" height="14.5" fill="url(#carB)"/>
    <path d="M69,60 L71.5,60 L70,65 L68,65 Z" fill="#fff" opacity="0.3"/>
    <path d="M40,60 L42,60 L41,65 L39,65 Z" fill="#fff" opacity="0.3"/>
    <rect x="48" y="73" width="14" height="1.2" rx="0.6" fill="#fde68a" opacity="0.4"/>
    <g filter="url(#gw)"><ellipse cx="84.5" cy="74.5" rx="2" ry="3" fill="#fef3c7"/><ellipse cx="84.5" cy="74.5" rx="1.1" ry="1.8" fill="#fff"/></g>
    <ellipse cx="25.5" cy="74.5" rx="1.8" ry="2.8" fill="#ef4444" opacity="0.85"/><ellipse cx="25.5" cy="74.5" rx="0.8" ry="1.4" fill="#fca5a5"/>
    <circle cx="36" cy="82.5" r="6" fill="#1e293b"/><circle cx="36" cy="82.5" r="4.8" fill="#334155"/><circle cx="36" cy="82.5" r="2.8" fill="#475569"/><line x1="36" y1="78.5" x2="36" y2="86.5" stroke="#64748b" stroke-width="0.6"/><line x1="32" y1="82.5" x2="40" y2="82.5" stroke="#64748b" stroke-width="0.6"/><circle cx="36" cy="82.5" r="1.2" fill="#94a3b8"/><circle cx="36" cy="82.5" r="0.5" fill="#f59e0b"/>
    <circle cx="74" cy="82.5" r="6" fill="#1e293b"/><circle cx="74" cy="82.5" r="4.8" fill="#334155"/><circle cx="74" cy="82.5" r="2.8" fill="#475569"/><line x1="74" y1="78.5" x2="74" y2="86.5" stroke="#64748b" stroke-width="0.6"/><line x1="70" y1="82.5" x2="78" y2="82.5" stroke="#64748b" stroke-width="0.6"/><circle cx="74" cy="82.5" r="1.2" fill="#94a3b8"/><circle cx="74" cy="82.5" r="0.5" fill="#f59e0b"/>
  </g>

  <!-- Speed lines -->
  <rect x="10" y="72" width="8" height="0.8" rx="0.4" fill="#f59e0b" opacity="0.25"/>
  <rect x="8" y="76" width="10" height="0.8" rx="0.4" fill="#f59e0b" opacity="0.18"/>
  <rect x="11" y="80" width="7" height="0.8" rx="0.4" fill="#f59e0b" opacity="0.22"/>

  <!-- MC text -->
  <text x="55" y="45" text-anchor="middle" font-family="'Segoe UI',Arial,sans-serif" font-weight="800" font-size="13" fill="#f59e0b" letter-spacing="2" opacity="0.85">MC</text>

  <!-- Brand text -->
  <text x="125" y="50" font-family="'Segoe UI',Arial,sans-serif" font-weight="800" font-size="34" fill="#0f172a" letter-spacing="1">Mahadev</text>
  <text x="125" y="82" font-family="'Segoe UI',Arial,sans-serif" font-weight="700" font-size="26" fill="#d97706" letter-spacing="5">CAB</text>
  <rect x="125" y="57" width="50" height="2" rx="1" fill="#f59e0b" opacity="0.4"/>
  <text x="125" y="105" font-family="'Segoe UI',Arial,sans-serif" font-weight="400" font-size="10.5" fill="#64748b" letter-spacing="2.5">DELHI'S TRUSTED CAB SERVICE</text>
</svg>
